<?xml version="1.0" encoding="UTF-8" standalone="no"?>
<!-- Created with Inkscape (http://www.inkscape.org/) -->

<svg
   xmlns:dc="http://purl.org/dc/elements/1.1/"
   xmlns:cc="http://creativecommons.org/ns#"
   xmlns:rdf="http://www.w3.org/1999/02/22-rdf-syntax-ns#"
   xmlns:svg="http://www.w3.org/2000/svg"
   xmlns="http://www.w3.org/2000/svg"
   xmlns:sodipodi="http://sodipodi.sourceforge.net/DTD/sodipodi-0.dtd"
   xmlns:inkscape="http://www.inkscape.org/namespaces/inkscape"
   width="106.84127mm"
   height="106.84127mm"
   viewBox="0 0 378.57144 378.57143"
   id="svg2"
   version="1.1"
   inkscape:version="0.91 r13725"
   inkscape:export-filename="/home/daniel/test_piclist.png"
   inkscape:export-xdpi="90"
   inkscape:export-ydpi="90"
   sodipodi:docname="piclist.svg">
  <title
     id="title4137">Piclist</title>
  <defs
     id="defs4" />
  <sodipodi:namedview
     id="base"
     pagecolor="#888888"
     bordercolor="#666666"
     borderopacity="1.0"
     inkscape:pageopacity="1"
     inkscape:pageshadow="2"
     inkscape:zoom="1"
     inkscape:cx="72.569038"
     inkscape:cy="166.49492"
     inkscape:document-units="px"
     inkscape:current-layer="svg2"
     showgrid="false"
     inkscape:window-width="1366"
     inkscape:window-height="709"
     inkscape:window-x="0"
     inkscape:window-y="22"
     inkscape:window-maximized="1"
     showborder="false"
     fit-margin-top="0"
     fit-margin-left="0"
     fit-margin-right="0"
     fit-margin-bottom="0"
     showguides="true" />
  <metadata
     id="metadata7">
    <rdf:RDF>
      <cc:Work
         rdf:about="">
        <dc:format>image/svg+xml</dc:format>
        <dc:type
           rdf:resource="http://purl.org/dc/dcmitype/StillImage" />
        <dc:title>Piclist</dc:title>
        <dc:creator>
          <cc:Agent>
            <dc:title>Daniel Douat</dc:title>
          </cc:Agent>
        </dc:creator>
        <dc:rights>
          <cc:Agent>
            <dc:title>Under BSD licence</dc:title>
          </cc:Agent>
        </dc:rights>
        <cc:license
           rdf:resource="BSD" />
      </cc:Work>
    </rdf:RDF>
  </metadata>
  <circle
     style="display:inline;fill:#1b1b1b;fill-opacity:1;stroke:none;stroke-opacity:1"
     id="path3438-23"
     cx="189.28572"
     cy="189.28572"
     r="189.28572" />
  <path
     inkscape:connector-curvature="0"
     style="display:inline;fill:#ffffff;fill-opacity:1;stroke:none;stroke-opacity:1"
     d="m 110.26144,71.604014 0,289.739726 a 189.28572,189.28572 0 0 0 40.21485,13.25 l 0,-84.97217 50.5664,0 c 33.31305,0 58.4648,-9.19596 75.45313,-27.58789 17.12105,-18.39192 25.68164,-45.57291 25.68164,-81.54296 0,-35.64454 -8.56059,-62.66277 -25.68164,-81.054676 -16.98833,-18.55469 -42.14008,-27.83203 -75.45313,-27.83203 l -90.78125,0 z m 40.21485,40.527326 50.5664,0 c 18.71371,0 33.18086,5.94076 43.40039,17.82227 10.21954,11.88151 15.33008,28.72721 15.33008,50.53711 0,21.97265 -5.11054,38.89973 -15.33008,50.78124 -10.21953,11.88152 -24.68668,17.82227 -43.40039,17.82227 l -50.5664,0 0,-136.96289 z"
     id="path3438-2" />
</svg>
